<svg xmlns="http://www.w3.org/2000/svg" version="1.1" xmlns:xlink="http://www.w3.org/1999/xlink" xmlns:svgjs="http://svgjs.dev/svgjs" width="2000" height="712" viewBox="0 0 2000 712"><g transform="matrix(1,0,0,1,-1.2121212121212466,0.4300642504690586)"><svg viewBox="0 0 396 141" data-background-color="#ffffff" preserveAspectRatio="xMidYMid meet" height="712" width="2000" xmlns="http://www.w3.org/2000/svg" xmlns:xlink="http://www.w3.org/1999/xlink"><g id="tight-bounds" transform="matrix(1,0,0,1,0.2400000000000091,-0.08516721814063999)"><svg viewBox="0 0 395.52 141.17033443628128" height="141.17033443628128" width="395.52"><g><svg viewBox="0 0 673.1592522979079 240.26627421059038" height="141.17033443628128" width="395.52"><g transform="matrix(1,0,0,1,277.63925229790794,16.384567911452095)"><svg viewBox="0 0 395.5199999999999 207.4971383876862" height="207.4971383876862" width="395.5199999999999"><g id="textblocktransform"><svg viewBox="0 0 395.5199999999999 207.4971383876862" height="207.4971383876862" width="395.5199999999999" id="textblock"><g><svg viewBox="0 0 395.5199999999999 140.66610878661083" height="140.66610878661083" width="395.5199999999999"><g transform="matrix(1,0,0,1,0,0)"><svg width="395.5199999999999" viewBox="1.25 -33.5 95.6 34" height="140.66610878661083" data-palette-color="#ff851b"><path d="M12.05 0L1.25 0 1.25-0.8 4.35-2.5 17.3-33.25 20.8-33.25 33.6-2.6 37-0.8 37 0 22.6 0 22.6-0.8 26.95-2.55 23.4-11.25 11.4-11.25 7.9-2.55 12.05-0.8 12.05 0ZM17.4-25.95L12.55-14 22.25-14 17.4-25.95ZM68.35 0L40.8 0 40.8-0.8 45-2.85 45-30.15 40.8-32.2 40.8-33 66.95-33 66.95-24.35 66.15-24.35 62.7-30.25 51.25-30.25 51.25-18.4 59.3-18.4 62-22.65 62.8-22.65 62.8-11.5 62-11.5 59.3-15.65 51.25-15.65 51.25-2.75 63.95-2.75 67.55-9.75 68.35-9.75 68.35 0ZM85.05 0.5L85.05 0.5Q81.85 0.5 79.47-0.13 77.1-0.75 74.75-1.95L74.75-1.95 74.25-10.3 75.15-10.3 78.2-4.55Q81.3-2 84.7-2L84.7-2Q87.5-2 89.2-3.38 90.9-4.75 90.9-7.3L90.9-7.3Q90.9-9.2 90.02-10.38 89.15-11.55 87.35-12.53 85.55-13.5 82.65-14.8L82.65-14.8Q79.15-16.5 77.25-18.48 75.35-20.45 75.35-23.8L75.35-23.8Q75.35-25.7 76.3-27.45 77.25-29.2 78.82-30.55 80.4-31.9 82.37-32.7 84.35-33.5 86.45-33.5L86.45-33.5Q88.95-33.5 91.12-32.93 93.3-32.35 95.3-31.3L95.3-31.3 95.8-23.3 94.95-23.3 91.9-28.8Q90.45-29.9 89.2-30.45 87.95-31 86.35-31L86.35-31Q84.25-31 82.87-29.6 81.5-28.2 81.5-26.05L81.5-26.05Q81.5-23.8 83-22.43 84.5-21.05 88-19.4L88-19.4Q91.05-18 93-16.65 94.95-15.3 95.9-13.6 96.85-11.9 96.85-9.4L96.85-9.4Q96.85-7 95.82-5.18 94.8-3.35 93.07-2.08 91.35-0.8 89.25-0.15 87.15 0.5 85.05 0.5Z" opacity="1" transform="matrix(1,0,0,1,0,0)" fill="#000000" class="wordmark-text-0" data-fill-palette-color="primary" id="text-0"></path></svg></g></svg></g><g transform="matrix(1,0,0,1,0,173.87400108451877)"><svg viewBox="0 0 232.20979199999994 33.62313730316741" height="33.62313730316741" width="232.20979199999994"><g transform="matrix(1,0,0,1,0,0)"><svg width="232.20979199999994" viewBox="3.7 -34.6 243.08 35.2" height="33.62313730316741" data-palette-color="#000000"><path d="M16.2-9.9L16.2-9.9 10.6-9.9 10.6 0 3.7 0 3.7-34 16.2-34Q28.3-34 28.3-22.2L28.3-22.2Q28.3-16.25 25.23-13.08 22.15-9.9 16.2-9.9ZM10.6-28.1L10.6-15.8 16.15-15.8Q21.3-15.8 21.3-22.2L21.3-22.2Q21.3-25.35 20.05-26.73 18.8-28.1 16.15-28.1L16.15-28.1 10.6-28.1ZM40.22-8.03Q41.7-5.4 45.75-5.4 49.8-5.4 51.27-8.03 52.75-10.65 52.75-16.82 52.75-23 51.25-25.8 49.75-28.6 45.75-28.6 41.75-28.6 40.25-25.8 38.75-23 38.75-16.82 38.75-10.65 40.22-8.03ZM56.67-3.63Q53.5 0.6 45.75 0.6 38 0.6 34.82-3.63 31.65-7.85 31.65-16.85 31.65-25.85 34.82-30.23 38-34.6 45.75-34.6 53.5-34.6 56.67-30.23 59.85-25.85 59.85-16.85 59.85-7.85 56.67-3.63ZM79.3-11.4L72.65-11.4 72.65 0 65.75 0 65.75-34 78.95-34Q90.95-34 90.95-22.8L90.95-22.8Q90.95-16.15 85.95-13L85.95-13 90.8 0 83.25 0 79.3-11.4ZM79.05-17.3Q81.5-17.3 82.7-18.8 83.9-20.3 83.9-22.75 83.9-25.2 82.62-26.65 81.34-28.1 78.95-28.1L78.95-28.1 72.65-28.1 72.65-17.3 79.05-17.3ZM102.79-27.9L93.69-27.9 93.69-34 118.69-34 118.69-27.9 109.69-27.9 109.69 0 102.79 0 102.79-27.9ZM129.94 0L123.04 0 123.04-34 144.74-34 144.74-28 129.94-28 129.94-18 142.04-18 142.04-12 129.94-12 129.94 0ZM156.66-8.03Q158.14-5.4 162.19-5.4 166.24-5.4 167.71-8.03 169.19-10.65 169.19-16.82 169.19-23 167.69-25.8 166.19-28.6 162.19-28.6 158.19-28.6 156.69-25.8 155.19-23 155.19-16.82 155.19-10.65 156.66-8.03ZM173.11-3.63Q169.94 0.6 162.19 0.6 154.44 0.6 151.26-3.63 148.09-7.85 148.09-16.85 148.09-25.85 151.26-30.23 154.44-34.6 162.19-34.6 169.94-34.6 173.11-30.23 176.29-25.85 176.29-16.85 176.29-7.85 173.11-3.63ZM201.54-6.1L201.54 0 182.19 0 182.19-34 189.09-34 189.09-6.1 201.54-6.1ZM212.68 0L205.78 0 205.78-34 212.68-34 212.68 0ZM227.16-8.03Q228.63-5.4 232.68-5.4 236.73-5.4 238.21-8.03 239.68-10.65 239.68-16.82 239.68-23 238.18-25.8 236.68-28.6 232.68-28.6 228.68-28.6 227.18-25.8 225.68-23 225.68-16.82 225.68-10.65 227.16-8.03ZM243.61-3.63Q240.43 0.6 232.68 0.6 224.93 0.6 221.76-3.63 218.58-7.85 218.58-16.85 218.58-25.85 221.76-30.23 224.93-34.6 232.68-34.6 240.43-34.6 243.61-30.23 246.78-25.85 246.78-16.85 246.78-7.85 243.61-3.63Z" opacity="1" transform="matrix(1,0,0,1,0,0)" fill="#000000" class="slogan-text-1" data-fill-palette-color="secondary" id="text-1"></path></svg></g></svg></g></svg></g></svg></g><g><svg viewBox="0 0 244.43135999999998 240.26627421059038" height="240.26627421059038" width="244.43135999999998"><g><svg xmlns="http://www.w3.org/2000/svg" xmlns:xlink="http://www.w3.org/1999/xlink" version="1.1" x="0" y="0" viewBox="-345.9993836358223 257.9479943277313 99.75176572719312 98.0520056722687" enable-background="new -346 256 100 100" xml:space="preserve" height="240.26627421059038" width="244.43135999999998" class="icon-icon-0" data-fill-palette-color="accent" id="icon-0"></svg></g></svg></g></svg></g><defs></defs><mask id="2440c11f-7462-401e-a9f1-ad16b72ea763"><g id="SvgjsG1009"><svg viewBox="0 0 395.52 141.17033443628128" height="141.17033443628128" width="395.52"><g><svg viewBox="0 0 673.1592522979079 240.26627421059038" height="141.17033443628128" width="395.52"><g transform="matrix(1,0,0,1,277.63925229790794,16.384567911452095)"><svg viewBox="0 0 395.5199999999999 207.4971383876862" height="207.4971383876862" width="395.5199999999999"><g id="SvgjsG1008"><svg viewBox="0 0 395.5199999999999 207.4971383876862" height="207.4971383876862" width="395.5199999999999" id="SvgjsSvg1007"><g><svg viewBox="0 0 395.5199999999999 140.66610878661083" height="140.66610878661083" width="395.5199999999999"><g transform="matrix(1,0,0,1,0,0)"><svg width="395.5199999999999" viewBox="1.25 -33.5 95.6 34" height="140.66610878661083" data-palette-color="#ff851b"></svg></g></svg></g><g transform="matrix(1,0,0,1,0,173.87400108451877)"><svg viewBox="0 0 232.20979199999994 33.62313730316741" height="33.62313730316741" width="232.20979199999994"><g transform="matrix(1,0,0,1,0,0)"><svg width="232.20979199999994" viewBox="3.7 -34.6 243.08 35.2" height="33.62313730316741" data-palette-color="#000000"></svg></g></svg></g></svg></g></svg></g><g><svg viewBox="0 0 244.43135999999998 240.26627421059038" height="240.26627421059038" width="244.43135999999998"><g><svg xmlns="http://www.w3.org/2000/svg" xmlns:xlink="http://www.w3.org/1999/xlink" version="1.1" x="0" y="0" viewBox="-345.9993836358223 257.9479943277313 99.75176572719312 98.0520056722687" enable-background="new -346 256 100 100" xml:space="preserve" height="240.26627421059038" width="244.43135999999998" class="icon-icon-0" data-fill-palette-color="accent" id="SvgjsSvg1004"><path d="M-246.455 327.152l-16.86-64.454c0 0-1.243-4.756-6.002-4.75l-72.96 0.08c0 0-4.759 0.004-3.515 4.761l15.835 60.538c7.148-15.684 15.203-33.301 15.795-34.599l0.423-0.924 21.84-0.021-1.048 2.253c-5.985 12.87-13.768 29.775-19.236 41.944l62.212-0.067C-249.97 331.912-245.211 331.906-246.455 327.152z" fill="white"></path><path d="M-296.864 290.954l-14.839 0.015c-9.094 19.892-25.758 56.396-26.425 58.074-1.594 4.007 0.346 6.235 1.171 6.957h56.176l-1.875-4.804h-35.137c-0.044 0.002-0.107 0.005-0.184 0.005-1.988 0-3.998-1.204-4.006-3.894-0.002-0.629-0.004-1.579 13.149-30.369C-303.924 306.194-298.966 295.487-296.864 290.954z" fill="white"></path></svg></g></svg></g></svg></g><defs><mask></mask></defs></svg></g></mask><linearGradient x1="0" x2="1" y1="0.5" y2="0.5" id="5dffa8dd-3465-4e6f-add7-e5b2776bdaa2"><stop stop-color="#ffa62e" offset="0"></stop><stop stop-color="#f71b3d" offset="1"></stop></linearGradient><rect width="395.52" height="141.17033443628128" fill="#000000" mask="url(#2440c11f-7462-401e-a9f1-ad16b72ea763)" data-fill-palette-color="accent"></rect></svg><rect width="395.52" height="141.17033443628128" fill="none" stroke="none" visibility="hidden"></rect></g></svg></g></svg>